<svg xmlns="http://www.w3.org/2000/svg" width="12.54" height="11.99"><path d="M1.99 5.28c.2.25 2.47 2.84 4.24 4.86l4.32-4.95c.34-.37.52-.86.52-1.4 0-1.28-1.04-2.33-2.33-2.33-.73 0-1.42.35-1.9.95a.78.78 0 01-.58.27c-.23 0-.44-.11-.58-.29a2.33 2.33 0 00-1.89-.93 2.339 2.339 0 00-1.82 3.8l.02.02m4.24 6.71c-.21 0-.41-.1-.55-.25-3.8-4.33-4.64-5.3-4.86-5.58v.01C.29 5.49 0 4.65 0 3.79 0 1.7 1.7 0 3.79 0c.94 0 1.81.32 2.49.89A3.87 3.87 0 018.74 0c2.1 0 3.8 1.7 3.8 3.79 0 .91-.32 1.76-.9 2.39l-4.86 5.56c-.14.15-.34.25-.55.25z" fill="#d22856"/></svg>