<svg xmlns="http://www.w3.org/2000/svg" width="298" height="345.09"><path d="M149 306.26c-60.85 0-110.17-49.32-110.17-110.17 0-60.84 49.32-110.17 110.17-110.17 60.84 0 110.16 49.33 110.16 110.17 0 60.85-49.32 110.17-110.16 110.17m115.56-204.21l5.36-5.36c7.72-7.71 9.12-18.93 3.12-24.93-5.99-6-17.21-4.59-24.93 3.13l-5.39 5.38C221.76 63.29 196.1 51.87 168 48.29v-9.58h7.65c10.92 0 19.85-8.71 19.85-19.36C195.5 8.71 186.57 0 175.65 0h-53.31c-10.92 0-19.84 8.71-19.84 19.35 0 10.65 8.92 19.36 19.84 19.36H130v9.58C56.68 57.62 0 120.24 0 196.09c0 82.29 66.7 149 149 149 82.29 0 149-66.71 149-149 0-35.66-12.54-68.39-33.44-94.04" fill="#dedede"/></svg>